<svg xmlns="http://www.w3.org/2000/svg" width="20" height="20" fill="none"><path fill="#101828" d="M18.75 17.5s1.25 0 1.25-1.25-1.25-5-6.25-5-6.25 3.75-6.25 5 1.25 1.25 1.25 1.25h10Zm-9.973-1.25-.027-.005c.001-.33.209-1.288.95-2.15.69-.809 1.902-1.595 4.05-1.595 2.146 0 3.359.787 4.05 1.595.741.862.947 1.821.95 2.15l-.01.002-.017.003H8.777Zm4.973-7.5a2.5 2.5 0 1 0 0-5 2.5 2.5 0 0 0 0 5Zm3.75-2.5a3.75 3.75 0 1 1-7.498 0 3.75 3.75 0 0 1 7.498 0ZM8.67 11.6a7.497 7.497 0 0 0-1.537-.309 8.727 8.727 0 0 0-.883-.041c-5 0-6.25 3.75-6.25 5 0 .833.417 1.25 1.25 1.25h5.27a2.8 2.8 0 0 1-.27-1.25c0-1.262.471-2.553 1.362-3.63A6.612 6.612 0 0 1 8.67 11.6Zm-2.52.9A6.875 6.875 0 0 0 5 16.25H1.25c0-.325.205-1.287.95-2.155.681-.795 1.865-1.57 3.95-1.594V12.5ZM1.875 6.875a3.75 3.75 0 1 1 7.5 0 3.75 3.75 0 0 1-7.5 0Zm3.75-2.5a2.5 2.5 0 1 0 0 5 2.5 2.5 0 0 0 0-5Z"/></svg>