<svg xmlns="http://www.w3.org/2000/svg" width="24" height="32" fill="none"><path fill="#101828" fill-rule="evenodd" d="M10.42 1.6C11.38.59 12 0 12 0c.219.725.466 1.417.742 2.076 1.624 3.892 4.146 6.7 6.394 9.2C21.756 14.192 24 16.69 24 20a12 12 0 0 1-24 0C0 13.336 7.16 5.034 10.42 1.6Zm.826 2.042A62 62 0 0 0 7.588 7.98c-1.452 1.9-2.872 4.016-3.92 6.14C2.608 16.266 2 18.276 2 20a10 10 0 0 0 20 0c0-2.402-1.592-4.314-4.362-7.4l-.06-.064C15.5 10.22 13 7.442 11.246 3.642Z" clip-rule="evenodd"/><path fill="#101828" fill-rule="evenodd" d="M5.106 15.552c1.64-3.282 3.434-5.506 4.186-6.26l1.416 1.416c-.58.58-2.256 2.622-3.814 5.74l-1.788-.896Z" clip-rule="evenodd"/></svg>