<svg xmlns="http://www.w3.org/2000/svg" width="26" height="24" fill="none"><path fill="#101828" d="m13 9.854-1.341-2.683c-.333-.665-.91-1.62-1.728-2.393C9.127 4.018 8.164 3.5 7 3.5c-2.514 0-4.5 1.989-4.5 4.38 0 1.817.831 3.099 2.802 5.055a86.725 86.725 0 0 0 1.719 1.64c1.662 1.56 3.729 3.5 5.979 6.096 2.25-2.595 4.317-4.537 5.979-6.096a86.92 86.92 0 0 0 1.719-1.64C22.669 10.979 23.5 9.696 23.5 7.88c0-2.391-1.986-4.38-4.5-4.38-1.166 0-2.127.518-2.931 1.278-.817.773-1.395 1.728-1.728 2.393L13 9.854Zm.588 12.438a.77.77 0 0 1-1.176 0c-2.402-2.853-4.575-4.893-6.365-6.572C2.95 12.813 1 10.983 1 7.88 1 4.633 3.685 2 7 2c2.4 0 4.079 1.575 5.106 3.012.39.548.687 1.074.894 1.488.26-.518.559-1.015.894-1.488C14.921 3.574 16.6 2 19 2c3.315 0 6 2.633 6 5.88 0 3.103-1.95 4.932-5.047 7.84-1.79 1.68-3.963 3.722-6.365 6.572Z"/></svg>
