<svg xmlns="http://www.w3.org/2000/svg" width="20" height="20" fill="none"><path fill="#101828" fill-rule="evenodd" d="M.625 7.5a.625.625 0 0 0-.61.76l2.065 9.292A3.125 3.125 0 0 0 5.13 20h7.24a3.125 3.125 0 0 0 3.05-2.448l.164-.737a3.75 3.75 0 0 0 1.625-7.318l.276-1.237a.624.624 0 0 0-.61-.76H.625Zm15.625 8.125a2.5 2.5 0 0 1-.395-.031l1.084-4.873a2.502 2.502 0 0 1-.689 4.904ZM3.3 17.281 1.404 8.75h14.692L14.2 17.281a1.875 1.875 0 0 1-1.83 1.469H5.13a1.875 1.875 0 0 1-1.83-1.469Z" clip-rule="evenodd"/><path fill="#101828" d="m5.5 1-.004.005-.017.024a5 5 0 0 0-.255.387 2.5 2.5 0 0 0-.176.334c-.033.075-.043.115-.047.129v.005a.75.75 0 0 0 .114.31c.094.166.223.34.385.556l.013.015c.147.197.325.434.462.679.14.25.275.568.275.931 0 .235-.081.46-.149.617a3.75 3.75 0 0 1-.252.485 6.247 6.247 0 0 1-.317.478l-.022.031-.006.01L5.5 6A.625.625 0 1 1 4.5 5.25l.004-.005.017-.024a5 5 0 0 0 .255-.387 2.5 2.5 0 0 0 .176-.334c.033-.075.043-.115.047-.129a.75.75 0 0 0-.113-.315A5.001 5.001 0 0 0 4.5 3.5l-.013-.015a6.25 6.25 0 0 1-.462-.679 1.913 1.913 0 0 1-.275-.931c0-.235.081-.46.149-.618.074-.172.167-.342.252-.485a7.5 7.5 0 0 1 .317-.477l.03-.044A.625.625 0 0 1 5.5 1Zm3.75 0-.004.005-.017.024a5 5 0 0 0-.255.387 2.5 2.5 0 0 0-.177.334c-.032.075-.042.115-.046.129v.005a.75.75 0 0 0 .114.31c.094.166.223.34.385.556l.012.015c.148.197.325.434.463.679.14.25.275.568.275.931 0 .235-.081.46-.149.617a3.75 3.75 0 0 1-.252.485 6.247 6.247 0 0 1-.316.478l-.023.031-.006.01L9.25 6A.625.625 0 1 1 8.25 5.25l.004-.005.017-.024a5 5 0 0 0 .255-.387 2.5 2.5 0 0 0 .177-.334c.032-.075.042-.115.046-.129a.75.75 0 0 0-.113-.315A5.001 5.001 0 0 0 8.25 3.5l-.012-.015a6.25 6.25 0 0 1-.463-.679 1.913 1.913 0 0 1-.275-.931c0-.235.081-.46.149-.618.074-.172.167-.342.252-.485a7.5 7.5 0 0 1 .316-.477L8.25.251A.625.625 0 0 1 9.25 1ZM13 1l-.004.005-.017.024a4.968 4.968 0 0 0-.255.387 2.503 2.503 0 0 0-.177.334c-.032.075-.042.115-.046.129v.005a.75.75 0 0 0 .114.31c.094.166.223.34.385.556l.012.015c.148.197.325.434.463.679.14.25.275.568.275.931 0 .235-.081.46-.149.617a3.75 3.75 0 0 1-.252.485 6.272 6.272 0 0 1-.315.478l-.024.031-.006.01L13 6A.625.625 0 0 1 12 5.25l.004-.005.017-.024c.091-.125.176-.254.255-.387.067-.107.126-.218.177-.334.032-.075.042-.115.046-.129a.75.75 0 0 0-.113-.315A5.007 5.007 0 0 0 12 3.5l-.012-.015a6.244 6.244 0 0 1-.463-.679 1.912 1.912 0 0 1-.275-.931c0-.235.081-.46.149-.618a4.19 4.19 0 0 1 .252-.485c.1-.163.205-.322.316-.477L12 .251A.625.625 0 0 1 13 1Z"/></svg>