<svg width="0" height="0" class="hidden">
  <symbol xmlns="http://www.w3.org/2000/svg" fill="none" viewBox="0 0 136 16" id="logo">
    <path fill="#475467" d="M135.393 7.188h-3.608a.99.99 0 0 0-.235-.576 1.316 1.316 0 0 0-.532-.37 1.814 1.814 0 0 0-.711-.134c-.336 0-.625.062-.866.185-.242.123-.36.298-.355.525-.005.161.064.31.206.448.146.137.428.243.845.32l2.216.397c1.117.204 1.948.547 2.493 1.03.549.478.826 1.12.831 1.925-.005.776-.237 1.45-.696 2.024-.455.568-1.078 1.008-1.868 1.32-.786.308-1.684.462-2.692.462-1.667 0-2.971-.34-3.913-1.022-.938-.682-1.461-1.582-1.57-2.7h3.892c.052.346.223.614.511.803.294.185.663.277 1.108.277.36 0 .656-.061.888-.184.237-.123.358-.299.362-.526-.004-.208-.109-.374-.312-.497-.199-.123-.512-.223-.938-.298l-1.931-.341c-1.113-.194-1.946-.564-2.5-1.108-.554-.545-.829-1.246-.824-2.103-.005-.757.194-1.399.596-1.924.407-.53.987-.933 1.74-1.208.758-.279 1.655-.419 2.692-.419 1.577 0 2.82.327 3.729.98.914.654 1.394 1.558 1.442 2.713ZM116.415 11.96l.028-4.659h.512l2.642-3.665H124l-4.432 5.71h-1.108l-2.045 2.614Zm-3.523 2.585V0h3.921v14.546h-3.921Zm6.733 0-2.5-4.318 2.557-2.784 4.432 7.103h-4.489ZM105.619 14.744c-1.184 0-2.197-.234-3.04-.703a4.836 4.836 0 0 1-1.939-1.974c-.45-.848-.674-1.83-.674-2.948 0-1.117.224-2.097.674-2.94a4.78 4.78 0 0 1 1.939-1.974c.843-.474 1.856-.71 3.04-.71 1.07 0 1.996.193 2.777.582.786.383 1.394.928 1.825 1.633.431.701.649 1.525.654 2.472h-3.637c-.052-.573-.218-1.009-.497-1.307-.275-.303-.63-.455-1.065-.455-.341 0-.64.1-.895.299-.256.194-.455.49-.597.888-.142.393-.213.887-.213 1.484s.071 1.094.213 1.491c.142.393.341.69.597.888.255.194.554.291.895.291.289 0 .544-.066.767-.198.222-.138.402-.337.54-.597.142-.265.227-.587.255-.966h3.637c-.015.961-.235 1.8-.661 2.514-.426.71-1.03 1.26-1.811 1.648-.777.388-1.705.582-2.784.582ZM94.049 9.773V3.636h3.92v10.91h-3.721v-2.074h-.114a3.1 3.1 0 0 1-1.243 1.633c-.592.388-1.295.582-2.11.582-.762 0-1.43-.175-2.002-.525a3.604 3.604 0 0 1-1.328-1.449c-.313-.615-.471-1.321-.476-2.116v-6.96h3.92v6.136c.005.54.142.963.412 1.271.275.308.658.462 1.15.462.328 0 .61-.069.846-.206.242-.142.426-.341.554-.597.133-.26.197-.57.192-.93ZM77.903 14.546V3.636h3.807V5.71h.113c.2-.767.514-1.328.945-1.683a2.344 2.344 0 0 1 1.527-.533c.17 0 .338.015.504.043.17.024.334.06.49.106V6.99a3.51 3.51 0 0 0-.717-.15 6.45 6.45 0 0 0-.731-.05c-.384 0-.73.088-1.037.264-.303.17-.543.411-.718.724-.175.308-.263.67-.263 1.087v5.681h-3.92ZM64.45 3.182V0h12.643v3.182h-4.375v11.364h-3.892V3.181H64.45Z"></path>
    <path fill="#101828" d="M62.508 0v14.546h-3.92V0h3.92ZM51.247 14.744c-1.165 0-2.169-.222-3.012-.667a4.678 4.678 0 0 1-1.939-1.932c-.45-.843-.674-1.851-.674-3.026 0-1.127.227-2.111.681-2.954a4.873 4.873 0 0 1 1.925-1.968c.829-.468 1.807-.703 2.933-.703.824 0 1.57.128 2.238.384a4.686 4.686 0 0 1 1.711 1.115c.474.483.838 1.07 1.094 1.761.256.692.384 1.47.384 2.337V10h-9.745V7.84h6.137a1.505 1.505 0 0 0-.242-.823 1.538 1.538 0 0 0-.618-.561 1.817 1.817 0 0 0-.873-.206c-.318 0-.609.069-.874.206a1.651 1.651 0 0 0-.64.554c-.155.237-.238.514-.248.83v2.33c0 .35.074.663.22.938.147.275.358.49.633.646.274.157.606.235.994.235.27 0 .516-.038.739-.114.227-.076.421-.185.582-.327.16-.146.28-.322.355-.525h3.58a4.078 4.078 0 0 1-.874 1.974c-.46.554-1.068.985-1.825 1.293-.753.303-1.634.454-2.642.454ZM44.836 3.636l-3.664 10.91h-4.546l-3.665-10.91h4.12l1.761 7.216h.114l1.761-7.216h4.12ZM25.056 14.716c-.696 0-1.312-.114-1.847-.341a2.777 2.777 0 0 1-1.25-1.051c-.303-.469-.454-1.066-.454-1.79 0-.597.102-1.106.305-1.527a2.75 2.75 0 0 1 .853-1.044c.364-.27.788-.476 1.27-.618a7.707 7.707 0 0 1 1.578-.277c.61-.047 1.1-.104 1.47-.17.374-.071.644-.168.81-.291a.606.606 0 0 0 .248-.505v-.028c0-.284-.109-.502-.327-.654-.218-.151-.497-.227-.838-.227-.374 0-.68.083-.916.249-.232.16-.372.41-.419.745h-3.608a3.719 3.719 0 0 1 .632-1.832c.379-.563.93-1.013 1.655-1.35.724-.34 1.629-.51 2.713-.51.781 0 1.482.092 2.102.276.62.18 1.148.434 1.584.76.436.322.767.701.994 1.137.232.43.348.9.348 1.406v7.472h-3.664V13.01h-.086a3.148 3.148 0 0 1-.795.988c-.308.25-.66.433-1.058.546a4.67 4.67 0 0 1-1.3.17Zm1.278-2.472c.299 0 .578-.061.838-.184.266-.123.481-.301.647-.533.166-.232.248-.514.248-.845v-.91a4.538 4.538 0 0 1-.333.121 6.811 6.811 0 0 1-.781.199 9.716 9.716 0 0 1-.448.079 2.232 2.232 0 0 0-.746.234c-.19.104-.331.234-.426.39a.982.982 0 0 0-.135.512c0 .303.107.535.32.696.213.16.485.241.816.241ZM13.452 14.546V3.636h3.807V5.71h.114c.198-.767.513-1.328.944-1.683a2.344 2.344 0 0 1 1.527-.533c.17 0 .339.015.505.043.17.024.333.06.49.106V6.99a3.51 3.51 0 0 0-.718-.15 6.451 6.451 0 0 0-.731-.05c-.384 0-.73.088-1.037.264-.303.17-.542.411-.718.724-.175.308-.262.67-.262 1.087v5.681h-3.92ZM0 3.182V0h12.642v3.182H8.267v11.364H4.375V3.181H0Z"></path>
  </symbol>

  <symbol xmlns="http://www.w3.org/2000/svg"  viewBox="0 0 26 24" id="favorite">
    <path  d="m13 9.854-1.341-2.683c-.333-.665-.91-1.62-1.728-2.393C9.127 4.018 8.164 3.5 7 3.5c-2.514 0-4.5 1.989-4.5 4.38 0 1.817.831 3.099 2.802 5.055a86.725 86.725 0 0 0 1.719 1.64c1.662 1.56 3.729 3.5 5.979 6.096 2.25-2.595 4.317-4.537 5.979-6.096a86.92 86.92 0 0 0 1.719-1.64C22.669 10.979 23.5 9.696 23.5 7.88c0-2.391-1.986-4.38-4.5-4.38-1.166 0-2.127.518-2.931 1.278-.817.773-1.395 1.728-1.728 2.393L13 9.854Zm.588 12.438a.77.77 0 0 1-1.176 0c-2.402-2.853-4.575-4.893-6.365-6.572C2.95 12.813 1 10.983 1 7.88 1 4.633 3.685 2 7 2c2.4 0 4.079 1.575 5.106 3.012.39.548.687 1.074.894 1.488.26-.518.559-1.015.894-1.488C14.921 3.574 16.6 2 19 2c3.315 0 6 2.633 6 5.88 0 3.103-1.95 4.932-5.047 7.84-1.79 1.68-3.963 3.722-6.365 6.572Z"></path>
  </symbol>


  <symbol xmlns="http://www.w3.org/2000/svg"  viewBox="0 0 16 16" id="rating">
    <g clip-path="url(#a)">
      <path  d="M7.558.838a.5.5 0 0 1 .884 0l1.889 3.579a.5.5 0 0 0 .356.26l3.988.69a.5.5 0 0 1 .273.84l-2.82 2.902a.5.5 0 0 0-.137.42l.576 4.005a.5.5 0 0 1-.715.52L8.22 12.268a.5.5 0 0 0-.442 0l-3.63 1.786a.5.5 0 0 1-.716-.52l.576-4.005a.5.5 0 0 0-.137-.42l-2.82-2.902a.5.5 0 0 1 .273-.84l3.988-.69a.5.5 0 0 0 .357-.26L7.558.838Z"></path>
    </g>
    <defs>
      <clipPath id="a">
        <path fill="#fff" d="M0 0h16v16H0z"></path>
      </clipPath>
    </defs>
  </symbol>


  <symbol xmlns="http://www.w3.org/2000/svg"  viewBox="0 0 16 16" id="location">
    <g clip-path="url(#a)">
      <path  fill-rule="evenodd" d="M15.817.113A.499.499 0 0 1 16 .5v14a.5.5 0 0 1-.402.49l-5 1a.497.497 0 0 1-.196 0L5.5 15.01l-4.902.98A.5.5 0 0 1 0 15.5v-14a.5.5 0 0 1 .402-.49l5-1a.5.5 0 0 1 .196 0L10.5.99l4.902-.98a.5.5 0 0 1 .415.103ZM10 1.91l-4-.8v12.98l4 .8V1.91Zm1 12.98 4-.8V1.11l-4 .8v12.98Zm-6-.8V1.11l-4 .8v12.98l4-.8Z" clip-rule="evenodd"></path>
    </g>
    <defs>
      <clipPath id="a">
        <path fill="#fff" d="M0 0h16v16H0z"></path>
      </clipPath>
    </defs>
  </symbol>


  <symbol xmlns="http://www.w3.org/2000/svg" fill="none" viewBox="0 0 32 32" id="tv">
    <path fill="#101828" d="M0 8s0-4 4-4h24s4 0 4 4v12s0 4-4 4h-8c0 1.333.167 2.333.5 3H22a1 1 0 0 1 0 2H10a1 1 0 0 1 0-2h1.5c.333-.667.5-1.667.5-3H4s-4 0-4-4V8Zm2.796-1.71a1.52 1.52 0 0 0-.508.604A3 3 0 0 0 2 8.02V20c0 .65.156 1.004.29 1.204.14.208.341.377.604.508.338.162.703.259 1.076.286l.05.002H28c.65 0 1.004-.156 1.204-.29a1.52 1.52 0 0 0 .508-.604c.162-.338.259-.703.286-1.076l.002-.05V8c0-.65-.156-1.004-.29-1.204a1.52 1.52 0 0 0-.604-.508A3 3 0 0 0 27.98 6H4c-.65 0-1.004.156-1.204.29Z"></path>
  </symbol>


  <symbol xmlns="http://www.w3.org/2000/svg" fill="none" viewBox="0 0 20 20" id="kitchen">
    <path fill="#101828" fill-rule="evenodd" d="M.625 7.5a.625.625 0 0 0-.61.76l2.065 9.292A3.125 3.125 0 0 0 5.13 20h7.24a3.125 3.125 0 0 0 3.05-2.448l.164-.737a3.75 3.75 0 0 0 1.625-7.318l.276-1.237a.624.624 0 0 0-.61-.76H.625Zm15.625 8.125a2.5 2.5 0 0 1-.395-.031l1.084-4.873a2.502 2.502 0 0 1-.689 4.904ZM3.3 17.281 1.404 8.75h14.692L14.2 17.281a1.875 1.875 0 0 1-1.83 1.469H5.13a1.875 1.875 0 0 1-1.83-1.469Z" clip-rule="evenodd"></path>
    <path fill="#101828" d="m5.5 1-.004.005-.017.024a5 5 0 0 0-.255.387 2.5 2.5 0 0 0-.176.334c-.033.075-.043.115-.047.129v.005a.75.75 0 0 0 .114.31c.094.166.223.34.385.556l.013.015c.147.197.325.434.462.679.14.25.275.568.275.931 0 .235-.081.46-.149.617a3.75 3.75 0 0 1-.252.485 6.247 6.247 0 0 1-.317.478l-.022.031-.006.01L5.5 6A.625.625 0 1 1 4.5 5.25l.004-.005.017-.024a5 5 0 0 0 .255-.387 2.5 2.5 0 0 0 .176-.334c.033-.075.043-.115.047-.129a.75.75 0 0 0-.113-.315A5.001 5.001 0 0 0 4.5 3.5l-.013-.015a6.25 6.25 0 0 1-.462-.679 1.913 1.913 0 0 1-.275-.931c0-.235.081-.46.149-.618.074-.172.167-.342.252-.485a7.5 7.5 0 0 1 .317-.477l.03-.044A.625.625 0 0 1 5.5 1Zm3.75 0-.004.005-.017.024a5 5 0 0 0-.255.387 2.5 2.5 0 0 0-.177.334c-.032.075-.042.115-.046.129v.005a.75.75 0 0 0 .114.31c.094.166.223.34.385.556l.012.015c.148.197.325.434.463.679.14.25.275.568.275.931 0 .235-.081.46-.149.617a3.75 3.75 0 0 1-.252.485 6.247 6.247 0 0 1-.316.478l-.023.031-.006.01L9.25 6A.625.625 0 1 1 8.25 5.25l.004-.005.017-.024a5 5 0 0 0 .255-.387 2.5 2.5 0 0 0 .177-.334c.032-.075.042-.115.046-.129a.75.75 0 0 0-.113-.315A5.001 5.001 0 0 0 8.25 3.5l-.012-.015a6.25 6.25 0 0 1-.463-.679 1.913 1.913 0 0 1-.275-.931c0-.235.081-.46.149-.618.074-.172.167-.342.252-.485a7.5 7.5 0 0 1 .316-.477L8.25.251A.625.625 0 0 1 9.25 1ZM13 1l-.004.005-.017.024a4.968 4.968 0 0 0-.255.387 2.503 2.503 0 0 0-.177.334c-.032.075-.042.115-.046.129v.005a.75.75 0 0 0 .114.31c.094.166.223.34.385.556l.012.015c.148.197.325.434.463.679.14.25.275.568.275.931 0 .235-.081.46-.149.617a3.75 3.75 0 0 1-.252.485 6.272 6.272 0 0 1-.315.478l-.024.031-.006.01L13 6A.625.625 0 0 1 12 5.25l.004-.005.017-.024c.091-.125.176-.254.255-.387.067-.107.126-.218.177-.334.032-.075.042-.115.046-.129a.75.75 0 0 0-.113-.315A5.007 5.007 0 0 0 12 3.5l-.012-.015a6.244 6.244 0 0 1-.463-.679 1.912 1.912 0 0 1-.275-.931c0-.235.081-.46.149-.618a4.19 4.19 0 0 1 .252-.485c.1-.163.205-.322.316-.477L12 .251A.625.625 0 0 1 13 1Z"></path>
  </symbol>


  <symbol xmlns="http://www.w3.org/2000/svg" fill="none" viewBox="0 0 20 20" id="ac">
    <g clip-path="url(#a)">
      <path fill="#101828" d="M15.625 2.5A3.125 3.125 0 0 0 12.5 5.625a.625.625 0 1 1-1.25 0A4.375 4.375 0 1 1 15.625 10h-15a.625.625 0 0 1 0-1.25h15a3.125 3.125 0 1 0 0-6.25Zm-8.75 1.25A1.25 1.25 0 0 0 5.625 5a.625.625 0 0 1-1.25 0 2.5 2.5 0 1 1 2.5 2.5H.625a.625.625 0 0 1 0-1.25h6.25a1.25 1.25 0 1 0 0-2.5ZM0 11.875a.625.625 0 0 1 .625-.625h12.553A3.75 3.75 0 1 1 9.428 15a.625.625 0 1 1 1.25 0 2.5 2.5 0 1 0 2.5-2.5H.624A.625.625 0 0 1 0 11.875Z"></path>
    </g>
    <defs>
      <clipPath id="a">
        <path fill="#fff" d="M0 0h20v20H0z"></path>
      </clipPath>
    </defs>
  </symbol>


  <symbol xmlns="http://www.w3.org/2000/svg" fill="none" viewBox="0 0 20 20" id="transmission">
    <path fill="#101828" fill-rule="evenodd" d="M7.5 4.375A1.875 1.875 0 0 1 9.375 2.5h1.25A1.875 1.875 0 0 1 12.5 4.375v1.25A1.875 1.875 0 0 1 10.625 7.5v1.25H17.5a.625.625 0 0 1 .625.625v1.25a.624.624 0 1 1-1.25 0V10h-6.25v.625a.624.624 0 1 1-1.25 0V10h-6.25v.625a.625.625 0 1 1-1.25 0v-1.25A.625.625 0 0 1 2.5 8.75h6.875V7.5A1.875 1.875 0 0 1 7.5 5.625v-1.25Zm3.125 1.875a.625.625 0 0 0 .625-.625v-1.25a.625.625 0 0 0-.625-.625h-1.25a.625.625 0 0 0-.625.625v1.25a.625.625 0 0 0 .625.625h1.25ZM0 14.375A1.875 1.875 0 0 1 1.875 12.5h1.25A1.875 1.875 0 0 1 5 14.375v1.25A1.875 1.875 0 0 1 3.125 17.5h-1.25A1.875 1.875 0 0 1 0 15.625v-1.25Zm1.875-.625a.625.625 0 0 0-.625.625v1.25a.625.625 0 0 0 .625.625h1.25a.625.625 0 0 0 .625-.625v-1.25a.625.625 0 0 0-.625-.625h-1.25Zm5.625.625A1.875 1.875 0 0 1 9.375 12.5h1.25a1.875 1.875 0 0 1 1.875 1.875v1.25a1.875 1.875 0 0 1-1.875 1.875h-1.25A1.875 1.875 0 0 1 7.5 15.625v-1.25Zm1.875-.625a.625.625 0 0 0-.625.625v1.25a.625.625 0 0 0 .625.625h1.25a.624.624 0 0 0 .625-.625v-1.25a.624.624 0 0 0-.625-.625h-1.25Zm5.625.625a1.875 1.875 0 0 1 1.875-1.875h1.25A1.875 1.875 0 0 1 20 14.375v1.25a1.875 1.875 0 0 1-1.875 1.875h-1.25A1.875 1.875 0 0 1 15 15.625v-1.25Zm1.875-.625a.624.624 0 0 0-.625.625v1.25a.624.624 0 0 0 .625.625h1.25a.624.624 0 0 0 .625-.625v-1.25a.624.624 0 0 0-.625-.625h-1.25Z" clip-rule="evenodd"></path>
  </symbol>


  <symbol xmlns="http://www.w3.org/2000/svg" fill="none" viewBox="0 0 20 20" id="engine">
    <path fill="#101828" d="M3.75 3.125a.625.625 0 0 1 .625-.625h6.25a.625.625 0 0 1 .625.625v6.25a.625.625 0 0 1-.625.625h-6.25a.625.625 0 0 1-.625-.625v-6.25Z"></path>
    <path fill="#101828" d="M1.25 2.5A2.5 2.5 0 0 1 3.75 0h7.5a2.5 2.5 0 0 1 2.5 2.5v10a2.5 2.5 0 0 1 2.5 2.5v.625a.624.624 0 1 0 1.25 0V10h-.625a.625.625 0 0 1-.625-.625V5.469a.625.625 0 0 1 .625-.625h1.869c-.014-.595-.067-1.118-.252-1.528A1.212 1.212 0 0 0 18 2.744c-.23-.138-.58-.244-1.125-.244a.625.625 0 1 1 0-1.25c.705-.002 1.293.138 1.765.42.479.285.793.689.992 1.134.37.819.368 1.831.368 2.601v3.969a.625.625 0 0 1-.625.626h-.625v5.625a1.875 1.875 0 1 1-3.75 0V15a1.25 1.25 0 0 0-1.25-1.25v5h.625a.624.624 0 1 1 0 1.25H.625a.625.625 0 1 1 0-1.25h.625V2.5Zm11.25 0a1.25 1.25 0 0 0-1.25-1.25h-7.5A1.25 1.25 0 0 0 2.5 2.5v16.25h10V2.5Z"></path>
  </symbol>


  <symbol xmlns="http://www.w3.org/2000/svg" fill="none" viewBox="0 0 24 32" id="water">
    <path fill="#101828" fill-rule="evenodd" d="M10.42 1.6C11.38.59 12 0 12 0c.219.725.466 1.417.742 2.076 1.624 3.892 4.146 6.7 6.394 9.2C21.756 14.192 24 16.69 24 20a12 12 0 0 1-24 0C0 13.336 7.16 5.034 10.42 1.6Zm.826 2.042A62 62 0 0 0 7.588 7.98c-1.452 1.9-2.872 4.016-3.92 6.14C2.608 16.266 2 18.276 2 20a10 10 0 0 0 20 0c0-2.402-1.592-4.314-4.362-7.4l-.06-.064C15.5 10.22 13 7.442 11.246 3.642Z" clip-rule="evenodd"></path>
    <path fill="#101828" fill-rule="evenodd" d="M5.106 15.552c1.64-3.282 3.434-5.506 4.186-6.26l1.416 1.416c-.58.58-2.256 2.622-3.814 5.74l-1.788-.896Z" clip-rule="evenodd"></path>
  </symbol>



  <symbol xmlns="http://www.w3.org/2000/svg" fill="none" viewBox="0 0 20 20" id="radio">
    <g clip-path="url(#a)">
      <path fill="#101828" d="M8.75 3.125a.625.625 0 0 1 .625-.625h8.75a.625.625 0 0 1 .625.625v1.25a.625.625 0 0 1-.625.625h-8.75a.625.625 0 0 1-.625-.625v-1.25ZM0 15a3.75 3.75 0 1 1 7.5 0A3.75 3.75 0 0 1 0 15Zm8.75-1.875a.625.625 0 0 1 .625-.625h8.75a.624.624 0 0 1 .625.625v1.25a.624.624 0 0 1-.625.625h-8.75a.625.625 0 0 1-.625-.625v-1.25Zm0-6.25a.625.625 0 0 1 .625-.625h6.25a.625.625 0 1 1 0 1.25h-6.25a.625.625 0 0 1-.625-.625Zm0 10a.625.625 0 0 1 .625-.625h6.25a.624.624 0 1 1 0 1.25h-6.25a.625.625 0 0 1-.625-.625Zm-5-15.625a3.75 3.75 0 1 0 0 7.5 3.75 3.75 0 0 0 0-7.5Zm0 5.625a1.875 1.875 0 1 1 0-3.75 1.875 1.875 0 0 1 0 3.75Z"></path>
    </g>
    <defs>
      <clipPath id="a">
        <path fill="#fff" d="M0 0h20v20H0z"></path>
      </clipPath>
    </defs>
  </symbol>


  <symbol xmlns="http://www.w3.org/2000/svg" fill="none" viewBox="0 0 32 32" id="bathroom">
    <path fill="#101828" d="M8 29.5a1.5 1.5 0 1 1-3 0 1.5 1.5 0 0 1 3 0Zm2.5-5.5a1.5 1.5 0 1 0 0 3 1.5 1.5 0 0 0 0-3Zm-8 0a1.5 1.5 0 1 0 0 3 1.5 1.5 0 0 0 0-3Zm4-4a1.5 1.5 0 1 0 0 3 1.5 1.5 0 0 0 0-3ZM32 5a1 1 0 0 1-1 1h-3.586l-3.482 3.482-2.707 15.85a2 2 0 0 1-3.386 1.082l-12.25-12.25a2 2 0 0 1 1.086-3.388l15.842-2.708 3.776-3.775A1 1 0 0 1 27 4h4a1 1 0 0 1 1 1Zm-10.224 5.224L7 12.75 19.25 25l2.526-14.776Z"></path>
  </symbol>


  <symbol xmlns="http://www.w3.org/2000/svg" fill="none" viewBox="0 0 32 32" id="refrigerator">
    <path fill="#101828" d="M23.667 9.333a1 1 0 0 0-2 0V12a1 1 0 1 0 2 0V9.333Zm0 9.334a1 1 0 0 0-2 0v2.666a1 1 0 1 0 2 0v-2.666Z"></path>
    <path fill="#101828" fill-rule="evenodd" d="M16.075 1.667h-.15c-2.45 0-4.392 0-5.91.204-1.563.21-2.828.653-3.827 1.65-.997.999-1.44 2.264-1.65 3.827-.205 1.52-.205 3.46-.205 5.91v4.15c0 2.45 0 4.392.204 5.91.211 1.563.654 2.829 1.651 3.827.613.612 1.325 1.015 2.145 1.284v.904a1 1 0 0 0 1 1h1.334a1 1 0 0 0 1-1v-.394c1.209.061 2.62.061 4.258.061h.15c1.64 0 3.049 0 4.258-.061v.394a1 1 0 0 0 1 1h1.334a1 1 0 0 0 1-1v-.904c.82-.269 1.533-.672 2.145-1.284.997-.998 1.44-2.264 1.65-3.826.205-1.52.205-3.46.205-5.911V13.26c0-2.45 0-4.392-.204-5.91-.211-1.563-.654-2.829-1.651-3.827-.999-.998-2.264-1.44-3.827-1.651-1.52-.204-3.46-.204-5.91-.204M7.603 4.936c.564-.564 1.337-.903 2.678-1.083 1.371-.184 3.176-.186 5.719-.186s4.35.002 5.72.186c1.34.18 2.113.519 2.677 1.083.564.564.903 1.337 1.083 2.679.184 1.37.187 3.176.187 5.718v1H6.333v-1c0-2.542.003-4.348.187-5.72.18-1.34.519-2.113 1.083-2.677Zm-1.27 11.397h19.334v1c0 2.543-.003 4.35-.187 5.72-.18 1.34-.519 2.114-1.083 2.678-.564.564-1.337.902-2.678 1.082-1.371.184-3.176.187-5.719.187s-4.348-.003-5.72-.187c-1.34-.18-2.113-.518-2.677-1.082-.564-.564-.903-1.338-1.083-2.679-.184-1.37-.187-3.176-.187-5.719v-1Z" clip-rule="evenodd"></path>
  </symbol>

  <symbol xmlns="http://www.w3.org/2000/svg" fill="none" viewBox="0 0 32 32" id="microwave">
    <path stroke="#101828" stroke-linecap="round" stroke-linejoin="round" stroke-width="2" d="M26.667 5.333H5.333A2.667 2.667 0 0 0 2.667 8v14.667a2.667 2.667 0 0 0 2.666 2.666h21.334a2.667 2.667 0 0 0 2.666-2.666V8a2.667 2.667 0 0 0-2.666-2.667Z"></path>
    <path stroke="#101828" stroke-linecap="round" stroke-linejoin="round" stroke-width="2" d="M17.333 10.667h-8C8.597 10.667 8 11.264 8 12v6.667C8 19.403 8.597 20 9.333 20h8c.737 0 1.334-.597 1.334-1.333V12c0-.736-.597-1.333-1.334-1.333ZM24 10.667V20M8 25.333V28m16-2.667V28"></path>
  </symbol>


  <symbol xmlns="http://www.w3.org/2000/svg" fill="none" viewBox="0 0 32 32" id="gas">
    <path stroke="#101828" stroke-linecap="round" stroke-linejoin="round" stroke-width="2.4" d="M8 25.333h5.333M24 25.345v-.012M2.667 8c0-4.413.92-5.333 5.333-5.333h16c4.413 0 5.333.92 5.333 5.333v16c0 4.413-.92 5.333-5.333 5.333H8c-4.413 0-5.333-.92-5.333-5.333V8Z"></path>
    <path stroke="#101828" stroke-linecap="round" stroke-linejoin="round" stroke-width="2.4" d="M16 18.667A5.333 5.333 0 1 0 16 8a5.333 5.333 0 0 0 0 10.667ZM20.667 13.333h2M16 18v2m-4.667-6.667h-2M16 8.667v-2"></path>
  </symbol>


  <symbol xmlns="http://www.w3.org/2000/svg" fill="none" viewBox="0 0 32 32" id="paneltruck">
    <g clip-path="url(#a)">
      <path fill="#101828" d="M12 2H2v28h10V2Zm18 0H20v10h10V2Zm0 18v10H20V20h10ZM0 2a2 2 0 0 1 2-2h10a2 2 0 0 1 2 2v28a2 2 0 0 1-2 2H2a2 2 0 0 1-2-2V2Zm18 0a2 2 0 0 1 2-2h10a2 2 0 0 1 2 2v10a2 2 0 0 1-2 2H20a2 2 0 0 1-2-2V2Zm2 16a2 2 0 0 0-2 2v10a2 2 0 0 0 2 2h10a2 2 0 0 0 2-2V20a2 2 0 0 0-2-2H20Z"></path>
    </g>
    <defs>
      <clipPath id="a">
        <path fill="#fff" d="M0 0h32v32H0z"></path>
      </clipPath>
    </defs>
  </symbol>


  <symbol xmlns="http://www.w3.org/2000/svg" fill="none" viewBox="0 0 32 32" id="fullyintegrated">
    <path fill="#101828" d="M2 5a3 3 0 0 1 3-3h6a3 3 0 0 1 3 3v6a3 3 0 0 1-3 3H5a3 3 0 0 1-3-3V5Zm3-1a1 1 0 0 0-1 1v6a1 1 0 0 0 1 1h6a1 1 0 0 0 1-1V5a1 1 0 0 0-1-1H5Zm13 1a3 3 0 0 1 3-3h6a3 3 0 0 1 3 3v6a3 3 0 0 1-3 3h-6a3 3 0 0 1-3-3V5Zm3-1a1 1 0 0 0-1 1v6a1 1 0 0 0 1 1h6a1 1 0 0 0 1-1V5a1 1 0 0 0-1-1h-6ZM2 21a3 3 0 0 1 3-3h6a3 3 0 0 1 3 3v6a3 3 0 0 1-3 3H5a3 3 0 0 1-3-3v-6Zm3-1a1 1 0 0 0-1 1v6a1 1 0 0 0 1 1h6a1 1 0 0 0 1-1v-6a1 1 0 0 0-1-1H5Zm13 1a3 3 0 0 1 3-3h6a3 3 0 0 1 3 3v6a3 3 0 0 1-3 3h-6a3 3 0 0 1-3-3v-6Zm3-1a1 1 0 0 0-1 1v6a1 1 0 0 0 1 1h6a1 1 0 0 0 1-1v-6a1 1 0 0 0-1-1h-6Z"></path>
  </symbol>

  <symbol xmlns="http://www.w3.org/2000/svg" fill="none" viewBox="0 0 32 32" id="alcove">
    <path fill="#101828" d="M8 4v4H4V4h4Zm2 24v-4a2 2 0 0 0-2-2H4a2 2 0 0 0-2 2v4a2 2 0 0 0 2 2h4a2 2 0 0 0 2-2Zm0-10v-4a2 2 0 0 0-2-2H4a2 2 0 0 0-2 2v4a2 2 0 0 0 2 2h4a2 2 0 0 0 2-2Zm0-10V4a2 2 0 0 0-2-2H4a2 2 0 0 0-2 2v4a2 2 0 0 0 2 2h4a2 2 0 0 0 2-2Zm10 20v-4a2 2 0 0 0-2-2h-4a2 2 0 0 0-2 2v4a2 2 0 0 0 2 2h4a2 2 0 0 0 2-2Zm0-10v-4a2 2 0 0 0-2-2h-4a2 2 0 0 0-2 2v4a2 2 0 0 0 2 2h4a2 2 0 0 0 2-2Zm0-10V4a2 2 0 0 0-2-2h-4a2 2 0 0 0-2 2v4a2 2 0 0 0 2 2h4a2 2 0 0 0 2-2Zm-2-4v4h-4V4h4Zm10 0v4h-4V4h4ZM8 14v4H4v-4h4Zm10 0v4h-4v-4h4Zm10 0h-4v4h4v-4ZM8 24v4H4v-4h4Zm10 0v4h-4v-4h4Zm10 0v4h-4v-4h4ZM24 2a2 2 0 0 0-2 2v4a2 2 0 0 0 2 2h4a2 2 0 0 0 2-2V4a2 2 0 0 0-2-2h-4Zm-2 12a2 2 0 0 1 2-2h4a2 2 0 0 1 2 2v4a2 2 0 0 1-2 2h-4a2 2 0 0 1-2-2v-4Zm2 8a2 2 0 0 0-2 2v4a2 2 0 0 0 2 2h4a2 2 0 0 0 2-2v-4a2 2 0 0 0-2-2h-4Z"></path>
  </symbol>


</svg>
